0
SECTION
2
HEADER
9
$ACADVER
1
AC1009
0
ENDSEC
0
SECTION
2
TABLES
0
TABLE
2
LAYER
70
6
0
LAYER
2
WALLS
70
0
62
7
6
CONTINUOUS
0
LAYER
2
OPENINGS
70
0
62
1
6
CONTINUOUS
0
LAYER
2
NICHES
70
0
62
3
6
CONTINUOUS
0
LAYER
2
COMMS
70
0
62
5
6
CONTINUOUS
0
LAYER
2
DIMENSIONS
70
0
62
4
6
CONTINUOUS
0
LAYER
2
LABELS
70
0
62
2
6
CONTINUOUS
0
ENDTAB
0
ENDSEC
0
SECTION
2
ENTITIES
0
LINE
8
WALLS
10
0.00
20
0.00
11
0.00
21
500.00
0
LINE
8
WALLS
10
0.00
20
500.00
11
-400.00
21
500.00
0
LINE
8
WALLS
10
-400.00
20
500.00
11
-400.00
21
0.00
0
LINE
8
WALLS
10
200.00
20
-0.00
11
0.00
21
0.00
0
TEXT
8
LABELS
10
0.00
20
265.00
40
10.00
1
500
0
TEXT
8
LABELS
10
-200.00
20
515.00
40
10.00
1
400
0
TEXT
8
LABELS
10
-400.00
20
265.00
40
10.00
1
500
0
TEXT
8
LABELS
10
-100.00
20
15.00
40
10.00
1
600
0
ENDSEC
0
EOF
